<svg xmlns="http://www.w3.org/2000/svg" width="1600" height="900" viewBox="0 0 1600 900">
  <defs>
    <radialGradient id="sky" cx="50%" cy="40%" r="75%">
      <stop offset="0%" stop-color="#0b0f25"/>
      <stop offset="60%" stop-color="#050814"/>
      <stop offset="100%" stop-color="#03050c"/>
    </radialGradient>
    <radialGradient id="glow" cx="50%" cy="50%" r="50%">
      <stop offset="0%" stop-color="#00d9ff" stop-opacity="0.35"/>
      <stop offset="100%" stop-color="#00d9ff" stop-opacity="0"/>
    </radialGradient>
  </defs>
  <rect width="1600" height="900" fill="url(#sky)"/>
  <rect width="1600" height="900" fill="url(#glow)" opacity="0.35"/>
  <g fill="#8fdcff" opacity="0.9">
    <circle cx="120" cy="160" r="1.8"/>
    <circle cx="280" cy="90" r="1.4"/>
    <circle cx="420" cy="200" r="2.2"/>
    <circle cx="640" cy="130" r="1.2"/>
    <circle cx="820" cy="180" r="1.6"/>
    <circle cx="1100" cy="140" r="2"/>
    <circle cx="1340" cy="160" r="1.5"/>
    <circle cx="1500" cy="120" r="1.3"/>
    <circle cx="260" cy="320" r="1.7"/>
    <circle cx="520" cy="300" r="1.3"/>
    <circle cx="760" cy="320" r="1.9"/>
    <circle cx="980" cy="340" r="1.6"/>
    <circle cx="1180" cy="320" r="1.2"/>
    <circle cx="1400" cy="300" r="2"/>
    <circle cx="180" cy="520" r="1.4"/>
    <circle cx="380" cy="520" r="1.8"/>
    <circle cx="600" cy="500" r="1.1"/>
    <circle cx="840" cy="540" r="2"/>
    <circle cx="1040" cy="520" r="1.4"/>
    <circle cx="1260" cy="540" r="1.7"/>
    <circle cx="1480" cy="520" r="1.5"/>
    <circle cx="240" cy="700" r="1.3"/>
    <circle cx="520" cy="680" r="1.7"/>
    <circle cx="740" cy="720" r="1.4"/>
    <circle cx="980" cy="700" r="1.8"/>
    <circle cx="1200" cy="720" r="1.5"/>
    <circle cx="1420" cy="700" r="1.2"/>
  </g>
  <g fill="#ffffff" opacity="0.55">
    <circle cx="90" cy="80" r="1"/>
    <circle cx="360" cy="120" r="0.8"/>
    <circle cx="560" cy="60" r="0.9"/>
    <circle cx="900" cy="110" r="0.7"/>
    <circle cx="1230" cy="80" r="0.9"/>
    <circle cx="1460" cy="90" r="0.7"/>
    <circle cx="220" cy="260" r="0.8"/>
    <circle cx="480" cy="260" r="1"/>
    <circle cx="700" cy="260" r="0.8"/>
    <circle cx="940" cy="240" r="0.9"/>
    <circle cx="1160" cy="240" r="0.7"/>
    <circle cx="1360" cy="260" r="0.9"/>
    <circle cx="300" cy="430" r="0.8"/>
    <circle cx="560" cy="440" r="0.7"/>
    <circle cx="780" cy="430" r="1"/>
    <circle cx="980" cy="450" r="0.8"/>
    <circle cx="1220" cy="430" r="0.7"/>
    <circle cx="1440" cy="440" r="0.9"/>
    <circle cx="200" cy="600" r="0.8"/>
    <circle cx="460" cy="620" r="0.7"/>
    <circle cx="690" cy="610" r="0.9"/>
    <circle cx="940" cy="620" r="0.8"/>
    <circle cx="1180" cy="610" r="0.9"/>
    <circle cx="1400" cy="620" r="0.7"/>
    <circle cx="320" cy="780" r="0.9"/>
    <circle cx="580" cy="790" r="0.8"/>
    <circle cx="840" cy="780" r="1"/>
    <circle cx="1080" cy="800" r="0.8"/>
    <circle cx="1300" cy="780" r="0.9"/>
    <circle cx="1520" cy="790" r="0.8"/>
  </g>
</svg>
